<?xml version="1.0" encoding="UTF-8" standalone="no"?><svg xmlns="http://www.w3.org/2000/svg" xmlns:xlink="http://www.w3.org/1999/xlink" contentScriptType="application/ecmascript" contentStyleType="text/css" height="149px" preserveAspectRatio="none" style="width:215px;height:149px;" version="1.1" viewBox="0 0 215 149" width="215px" zoomAndPan="magnify"><defs/><g><!--MD5=[a6f11bb19cee6b13000111f5ad685e8b]
cluster Dependencies--><path d="M25,55 L127,55 A4.5,4.5 0 0 1 130,58 L137,74.9688 L151,74.9688 A3,3 0 0 1 154,77.9688 L154,134 A3,3 0 0 1 151,137 L25,137 A3,3 0 0 1 22,134 L22,58 A3,3 0 0 1 25,55 " fill="#FFFFFF" style="stroke: #000000; stroke-width: 1.5;"/><line style="stroke: #000000; stroke-width: 1.5;" x1="22" x2="137" y1="74.9688" y2="74.9688"/><text fill="#000000" font-family="Tahoma, sans-serif" font-size="12" font-weight="bold" lengthAdjust="spacingAndGlyphs" textLength="102" x="26" y="68.1387">Dependencies</text><!--MD5=[4338c09a15799736a91657b0a0d395f6]
entity @sprucelabs--><rect fill="#F8F8F8" height="33.9688" rx="3" ry="3" style="stroke: #383838; stroke-width: 1.0;" width="100" x="38" y="87"/><rect fill="#F8F8F8" height="5" style="stroke: #383838; stroke-width: 1.0;" width="10" x="33" y="92"/><rect fill="#F8F8F8" height="5" style="stroke: #383838; stroke-width: 1.0;" width="10" x="33" y="110.9688"/><text fill="#000000" font-family="Tahoma, sans-serif" font-size="12" lengthAdjust="spacingAndGlyphs" textLength="80" x="48" y="108.1387">@sprucelabs</text><ellipse cx="88.0538" cy="23.6108" fill="#F8F8F8" rx="66.0538" ry="15.6108" style="stroke: #383838; stroke-width: 0.5;"/><text fill="#000000" font-family="Tahoma, sans-serif" font-size="12" font-weight="bold" lengthAdjust="spacingAndGlyphs" textLength="105" x="35.5538" y="27.0951">release.config</text><ellipse cx="184.7635" cy="23.3774" fill="#F8F8F8" rx="19.2635" ry="12.8774" style="stroke: #383838; stroke-width: 0.5;"/><text fill="#000000" font-family="Tahoma, sans-serif" font-size="12" font-weight="bold" lengthAdjust="spacingAndGlyphs" textLength="23" x="173.2635" y="26.8618">src</text><!--MD5=[79022f06dc1b415141bb24c965e51c14]
link <b>release.config</b> to @sprucelabs--><path d="M88,39.265 C88,51.263 88,68.3429 88,81.802 " fill="none" id="&lt;b&gt;release.config&lt;/b&gt;-&gt;@sprucelabs" style="stroke: #000000; stroke-width: 1.0;"/><polygon fill="#000000" points="88,86.9501,92,77.9501,88,81.9501,84,77.9501,88,86.9501" style="stroke: #000000; stroke-width: 1.0;"/><script type="text/plantuml"><![CDATA[MD5=[27a2321dde9f8cd934c60108e377aabe]
@startuml

scale max 1920 width
top to bottom direction

skinparam nodesep 11
skinparam ranksep 22
skinparam monochrome true
skinparam shadowing false
skinparam defaultFontName Tahoma
skinparam defaultFontSize 12
skinparam roundCorner 6
skinparam dpi 150
skinparam arrowColor black
skinparam arrowThickness 0.5
skinparam packageTitleAlignment left

skinparam usecase {
  borderThickness 0.5
}

skinparam rectangle {
  borderThickness 0.5
}

skinparam component {
  borderThickness 1
}


(<b>release.config</b>)
(<b>src</b>)

package "Dependencies" {
  [@sprucelabs]
}

(<b>release.config</b>) --[thickness=1]> [@sprucelabs]

@enduml


' View and edit on https://arkit.pro
]]></script></g></svg>